# xmcd
#
# Track frame offsets:
#	150
#	34455
#	54980
#	74347
#	94682
#	111720
#	135192
#	154805
#	177885
#	202650
#	221605
#	242525
#	261430
#	289045
#
# Disc length: 4031 seconds
#
# Revision: 0
# Processed by: cddbd v1.5.2PL0 Copyright (c) Steve Scherf et al.
# Submitted via: EasyCDDAExtractor 15.3.0.1
#
DISCID=ca0fbd0e
DTITLE=Celine Dion - Falling Into You
DYEAR=1996
DGENRE=Pop
TTITLE0=It's All Coming Back To Me Now
TTITLE1=Because You Loved Me (Theme From ''Up Close and Personal'')
TTITLE2=Falling Into You
TTITLE3=Make You Happy
TTITLE4=Seduces Me
TTITLE5=All By Myself
TTITLE6=Declaration Of Love
TTITLE7=Dreamin' Of You
TTITLE8=I Love You
TTITLE9=If That's What It Takes
TTITLE10=I Don't Know
TTITLE11=River Deep, Mountain High
TTITLE12=Call The Man
TTITLE13=Fly
EXTD=
EXTT0=
EXTT1=
EXTT2=
EXTT3=
EXTT4=
EXTT5=
EXTT6=
EXTT7=
EXTT8=
EXTT9=
EXTT10=
EXTT11=
EXTT12=
EXTT13=
PLAYORDER=
